<svg xmlns="http://www.w3.org/2000/svg" xmlns:xlink="http://www.w3.org/1999/xlink" width="75" zoomAndPan="magnify" viewBox="0 0 56.879997 56.999997" height="75" preserveAspectRatio="xMidYMid meet" version="1.0"><defs><clipPath id="ce8e9aa9d2"><path d="M 5.65625 1.578125 L 49.066406 1.578125 L 49.066406 55.460938 L 5.65625 55.460938 Z M 5.65625 1.578125 " clip-rule="nonzero"/></clipPath></defs><g clip-path="url(#ce8e9aa9d2)"><path fill="#38b6ff" d="M 23.785156 32.96875 L 35.890625 20.851562 C 36.019531 20.730469 36.164062 20.636719 36.324219 20.570312 C 36.488281 20.503906 36.65625 20.472656 36.832031 20.472656 C 37.007812 20.472656 37.175781 20.503906 37.339844 20.566406 C 37.503906 20.632812 37.648438 20.726562 37.777344 20.847656 C 37.902344 20.972656 37.996094 21.113281 38.066406 21.277344 C 38.132812 21.441406 38.167969 21.609375 38.167969 21.789062 C 38.167969 21.964844 38.136719 22.132812 38.070312 22.296875 C 38 22.460938 37.90625 22.605469 37.78125 22.730469 L 24.578125 35.949219 C 24.316406 36.210938 24.003906 36.34375 23.632812 36.34375 L 23.628906 36.34375 C 23.265625 36.34375 22.949219 36.214844 22.691406 35.957031 C 22.636719 35.902344 22.589844 35.84375 22.542969 35.78125 L 17.105469 29.316406 C 17 29.175781 16.929688 29.015625 16.886719 28.84375 C 16.84375 28.671875 16.835938 28.496094 16.863281 28.320312 C 16.890625 28.144531 16.953125 27.980469 17.046875 27.832031 C 17.140625 27.679688 17.257812 27.550781 17.402344 27.449219 C 17.546875 27.34375 17.703125 27.269531 17.878906 27.230469 C 18.050781 27.191406 18.226562 27.183594 18.402344 27.214844 C 18.574219 27.242188 18.738281 27.304688 18.890625 27.398438 C 19.039062 27.492188 19.167969 27.613281 19.269531 27.757812 Z M 49.296875 31.96875 C 49.328125 35.941406 47.019531 40.625 42.796875 45.160156 C 40.980469 47.109375 38.984375 48.863281 36.820312 50.417969 L 36.726562 50.476562 C 36.6875 50.5 36.652344 50.523438 36.621094 50.550781 L 36.53125 50.621094 C 33.949219 52.484375 31.160156 53.945312 28.15625 55 L 27.777344 55.128906 L 27.394531 55.007812 C 26.480469 54.714844 25.585938 54.378906 24.707031 53.992188 C 24.652344 53.964844 24.597656 53.9375 24.539062 53.917969 L 24.464844 53.886719 C 19.980469 51.800781 16.023438 48.972656 12.59375 45.410156 C 10.792969 43.578125 9.257812 41.546875 7.980469 39.320312 L 7.933594 39.226562 C 7.914062 39.1875 7.890625 39.148438 7.863281 39.109375 L 7.808594 39.023438 C 6.617188 36.953125 5.96875 34.71875 5.875 32.332031 L 5.71875 13.230469 L 5.8125 13.179688 L 27.332031 1.578125 L 27.414062 1.621094 L 49.136719 12.875 Z M 46.683594 14.382812 L 27.355469 4.371094 L 8.203125 14.699219 L 8.347656 32.308594 C 8.441406 34.277344 8.980469 36.109375 9.964844 37.8125 C 10.039062 37.925781 10.105469 38.042969 10.164062 38.164062 C 11.332031 40.1875 12.734375 42.03125 14.371094 43.699219 C 17.570312 47.023438 21.257812 49.660156 25.4375 51.613281 C 25.546875 51.65625 25.65625 51.703125 25.761719 51.753906 C 26.421875 52.039062 27.113281 52.304688 27.753906 52.523438 C 30.363281 51.554688 32.796875 50.257812 35.058594 48.632812 C 35.175781 48.535156 35.296875 48.449219 35.421875 48.375 C 37.4375 46.921875 39.292969 45.289062 40.988281 43.472656 C 44.777344 39.402344 46.851562 35.324219 46.824219 31.988281 Z M 46.683594 14.382812 " fill-opacity="1" fill-rule="nonzero"/></g></svg>