<svg xmlns="http://www.w3.org/2000/svg" xmlns:xlink="http://www.w3.org/1999/xlink" width="75" zoomAndPan="magnify" viewBox="0 0 56.879997 56.999997" height="75" preserveAspectRatio="xMidYMid meet" version="1.0"><defs><clipPath id="d8690bea63"><path d="M 0 0.0585938 L 56.761719 0.0585938 L 56.761719 56.9375 L 0 56.9375 Z M 0 0.0585938 " clip-rule="nonzero"/></clipPath><clipPath id="6dced80fea"><path d="M 3.980469 3.753906 L 52.625 3.753906 L 52.625 52.402344 L 3.980469 52.402344 Z M 3.980469 3.753906 " clip-rule="nonzero"/></clipPath><clipPath id="6c79ea82c5"><path d="M 23 11 L 46 11 L 46 52.402344 L 23 52.402344 Z M 23 11 " clip-rule="nonzero"/></clipPath></defs><g clip-path="url(#d8690bea63)"><path fill="#ffffff" d="M 0 0.0585938 L 56.878906 0.0585938 L 56.878906 56.941406 L 0 56.941406 Z M 0 0.0585938 " fill-opacity="1" fill-rule="nonzero"/><path fill="#ffffff" d="M 0 0.0585938 L 56.878906 0.0585938 L 56.878906 56.941406 L 0 56.941406 Z M 0 0.0585938 " fill-opacity="1" fill-rule="nonzero"/></g><g clip-path="url(#6dced80fea)"><path fill="#3d5a98" d="M 49.9375 52.398438 C 51.421875 52.398438 52.621094 51.199219 52.621094 49.714844 L 52.621094 6.441406 C 52.621094 4.957031 51.421875 3.753906 49.9375 3.753906 L 6.664062 3.753906 C 5.179688 3.753906 3.980469 4.957031 3.980469 6.441406 L 3.980469 49.714844 C 3.980469 51.199219 5.179688 52.398438 6.664062 52.398438 Z M 49.9375 52.398438 " fill-opacity="1" fill-rule="nonzero"/></g><g clip-path="url(#6c79ea82c5)"><path fill="#ffffff" d="M 37.542969 52.398438 L 37.542969 33.5625 L 43.863281 33.5625 L 44.8125 26.222656 L 37.542969 26.222656 L 37.542969 21.535156 C 37.542969 19.410156 38.132812 17.960938 41.179688 17.960938 L 45.066406 17.957031 L 45.066406 11.390625 C 44.394531 11.300781 42.089844 11.101562 39.402344 11.101562 C 33.796875 11.101562 29.960938 14.523438 29.960938 20.808594 L 29.960938 26.222656 L 23.621094 26.222656 L 23.621094 33.5625 L 29.960938 33.5625 L 29.960938 52.398438 Z M 37.542969 52.398438 " fill-opacity="1" fill-rule="nonzero"/></g></svg>