<svg xmlns="http://www.w3.org/2000/svg" xmlns:xlink="http://www.w3.org/1999/xlink" width="75" zoomAndPan="magnify" viewBox="0 0 56.879997 56.999997" height="75" preserveAspectRatio="xMidYMid meet" version="1.0"><defs><clipPath id="852f1aadcd"><path d="M 3.644531 11 L 42 11 L 42 55 L 3.644531 55 Z M 3.644531 11 " clip-rule="nonzero"/></clipPath></defs><g clip-path="url(#852f1aadcd)"><path fill="#38b6ff" d="M 39.523438 51.003906 C 39.347656 51.09375 39.164062 51.195312 38.960938 51.289062 C 38.753906 51.371094 38.535156 51.457031 38.300781 51.550781 C 37.839844 51.734375 37.332031 51.949219 36.777344 52.160156 C 36.203125 52.328125 35.585938 52.515625 34.921875 52.710938 C 34.597656 52.828125 34.238281 52.863281 33.882812 52.941406 C 33.523438 53.011719 33.15625 53.082031 32.777344 53.160156 C 32.40625 53.25 32.007812 53.257812 31.609375 53.3125 C 31.207031 53.351562 30.800781 53.398438 30.382812 53.441406 C 29.964844 53.472656 29.53125 53.457031 29.097656 53.464844 C 28.882812 53.46875 28.660156 53.46875 28.441406 53.472656 C 28.21875 53.476562 27.996094 53.476562 27.769531 53.449219 C 26.871094 53.355469 25.941406 53.355469 25.003906 53.148438 C 23.109375 52.890625 21.191406 52.230469 19.289062 51.445312 C 17.382812 50.636719 15.601562 49.4375 13.902344 48.109375 C 13.5 47.75 13.097656 47.386719 12.695312 47.023438 L 12.390625 46.75 L 12.113281 46.449219 L 11.566406 45.84375 L 11.007812 45.238281 C 10.820312 45.042969 10.675781 44.804688 10.507812 44.589844 L 10.015625 43.929688 L 9.769531 43.601562 L 9.648438 43.4375 L 9.585938 43.351562 L 9.539062 43.292969 C 9.546875 43.300781 9.527344 43.277344 9.53125 43.277344 L 8.65625 41.847656 C 8.515625 41.601562 8.332031 41.355469 8.230469 41.113281 L 7.882812 40.394531 L 7.539062 39.671875 L 7.363281 39.316406 L 7.222656 38.933594 C 7.039062 38.421875 6.851562 37.914062 6.667969 37.40625 C 6.074219 35.332031 5.621094 33.234375 5.578125 31.164062 L 5.554688 30.777344 L 5.566406 30.390625 C 5.574219 30.136719 5.582031 29.878906 5.589844 29.625 C 5.609375 29.121094 5.601562 28.613281 5.675781 28.117188 C 5.734375 27.621094 5.789062 27.132812 5.84375 26.648438 C 5.914062 26.164062 6.039062 25.695312 6.132812 25.226562 C 6.289062 24.28125 6.636719 23.417969 6.882812 22.546875 C 6.941406 22.328125 7.023438 22.121094 7.113281 21.917969 C 7.195312 21.714844 7.277344 21.511719 7.363281 21.308594 C 7.53125 20.910156 7.679688 20.503906 7.863281 20.128906 C 8.058594 19.753906 8.253906 19.394531 8.441406 19.035156 C 8.636719 18.6875 8.796875 18.320312 9.019531 18.007812 C 9.226562 17.683594 9.429688 17.371094 9.628906 17.066406 C 9.835938 16.765625 10.003906 16.445312 10.230469 16.1875 C 10.660156 15.644531 11.0625 15.140625 11.433594 14.671875 C 11.835938 14.230469 12.226562 13.839844 12.570312 13.476562 C 12.742188 13.296875 12.910156 13.125 13.0625 12.964844 C 13.226562 12.8125 13.386719 12.679688 13.53125 12.550781 C 13.824219 12.296875 14.074219 12.078125 14.277344 11.898438 C 14.683594 11.542969 14.902344 11.355469 14.902344 11.355469 C 14.902344 11.355469 14.660156 11.511719 14.207031 11.800781 C 13.976562 11.953125 13.699219 12.132812 13.367188 12.347656 C 13.203125 12.453125 13.019531 12.5625 12.835938 12.695312 C 12.664062 12.835938 12.476562 12.988281 12.277344 13.152344 C 11.890625 13.476562 11.445312 13.824219 10.976562 14.226562 C 10.546875 14.667969 10.078125 15.144531 9.578125 15.652344 C 9.316406 15.898438 9.113281 16.207031 8.867188 16.5 C 8.632812 16.792969 8.386719 17.101562 8.136719 17.417969 C 7.867188 17.71875 7.675781 18.089844 7.441406 18.4375 C 7.214844 18.796875 6.980469 19.164062 6.742188 19.539062 C 6.519531 19.921875 6.335938 20.332031 6.121094 20.742188 C 6.015625 20.949219 5.910156 21.15625 5.804688 21.367188 C 5.695312 21.578125 5.589844 21.789062 5.507812 22.015625 C 5.175781 22.914062 4.769531 23.828125 4.539062 24.824219 C 3.933594 26.785156 3.675781 28.953125 3.640625 31.195312 C 3.660156 31.757812 3.679688 32.324219 3.699219 32.894531 C 3.722656 33.464844 3.832031 34.03125 3.894531 34.605469 C 3.933594 34.894531 3.972656 35.179688 4.007812 35.46875 L 4.203125 36.324219 C 4.347656 36.890625 4.460938 37.472656 4.640625 38.035156 C 4.835938 38.59375 5.035156 39.15625 5.230469 39.71875 L 5.382812 40.140625 L 5.574219 40.554688 L 6.355469 42.21875 C 6.484375 42.503906 6.644531 42.71875 6.789062 42.976562 L 7.671875 44.457031 L 8.792969 45.9375 C 8.980469 46.171875 9.144531 46.429688 9.355469 46.644531 L 10.582031 47.957031 L 10.886719 48.285156 L 11.222656 48.582031 C 11.671875 48.972656 12.117188 49.363281 12.5625 49.753906 C 13.019531 50.128906 13.515625 50.453125 13.988281 50.796875 L 14.710938 51.296875 C 14.964844 51.4375 15.21875 51.582031 15.46875 51.722656 C 15.980469 51.996094 16.464844 52.308594 16.984375 52.542969 C 17.507812 52.773438 18.027344 53 18.539062 53.226562 C 20.632812 54.035156 22.742188 54.597656 24.78125 54.769531 C 25.796875 54.929688 26.792969 54.890625 27.753906 54.914062 C 27.992188 54.925781 28.226562 54.90625 28.464844 54.882812 C 28.695312 54.863281 28.929688 54.84375 29.160156 54.824219 C 29.621094 54.777344 30.074219 54.757812 30.511719 54.691406 C 30.945312 54.613281 31.375 54.535156 31.789062 54.457031 C 32.203125 54.367188 32.617188 54.328125 33 54.191406 C 33.382812 54.078125 33.761719 53.964844 34.125 53.855469 C 34.484375 53.738281 34.847656 53.664062 35.171875 53.507812 C 35.832031 53.238281 36.449219 52.980469 37.015625 52.746094 C 37.566406 52.460938 38.0625 52.179688 38.507812 51.9375 C 38.730469 51.8125 38.941406 51.695312 39.140625 51.589844 C 39.328125 51.46875 39.496094 51.339844 39.660156 51.230469 C 39.980469 51 40.25 50.808594 40.472656 50.652344 C 40.910156 50.34375 41.148438 50.175781 41.148438 50.175781 C 41.148438 50.175781 40.890625 50.304688 40.410156 50.550781 C 40.167969 50.675781 39.871094 50.828125 39.523438 51.003906 Z M 39.523438 51.003906 " fill-opacity="1" fill-rule="nonzero"/></g><path fill="#38b6ff" d="M 36.726562 11.050781 C 38.105469 11.566406 41.316406 7.34375 41.316406 7.34375 C 41.316406 7.34375 39.65625 10.902344 38.441406 11.703125 C 44.953125 11.53125 43.269531 2.011719 43.269531 2.011719 C 43.269531 2.011719 41.941406 3.84375 36.316406 6.335938 C 34.539062 8.21875 35.582031 10.621094 36.726562 11.050781 Z M 36.726562 11.050781 " fill-opacity="1" fill-rule="nonzero"/><path fill="#38b6ff" d="M 40.972656 12.019531 C 42.8125 12.40625 47.367188 18.058594 47.460938 21.335938 C 45.699219 18.566406 44.453125 17.117188 43.675781 16.363281 C 44.320312 16.871094 41.714844 13.773438 36.382812 11.46875 C 36.382812 11.46875 36.378906 11.46875 36.375 11.464844 C 36.324219 11.441406 36.269531 11.417969 36.214844 11.394531 C 35.820312 11.214844 35.394531 11.027344 34.929688 10.855469 C 34.316406 10.625 33.640625 10.414062 32.914062 10.230469 C 32.386719 10.097656 31.835938 9.976562 31.238281 9.882812 C 30.902344 9.839844 30.558594 9.796875 30.210938 9.753906 L 29.945312 9.722656 L 29.882812 9.714844 C 29.859375 9.710938 29.886719 9.710938 29.820312 9.707031 L 29.785156 9.707031 L 29.648438 9.703125 C 29.460938 9.695312 29.273438 9.691406 29.085938 9.679688 C 28.707031 9.664062 28.320312 9.664062 27.925781 9.65625 C 27.535156 9.644531 27.140625 9.707031 26.734375 9.730469 C 26.332031 9.769531 25.917969 9.785156 25.507812 9.847656 C 25.097656 9.921875 24.679688 9.996094 24.261719 10.074219 C 24.050781 10.113281 23.839844 10.152344 23.625 10.191406 C 23.417969 10.253906 23.210938 10.316406 23 10.378906 C 22.582031 10.507812 22.160156 10.636719 21.734375 10.761719 C 21.316406 10.921875 20.902344 11.097656 20.484375 11.273438 L 19.855469 11.539062 C 19.648438 11.636719 19.453125 11.753906 19.25 11.859375 C 19.027344 11.980469 18.804688 12.101562 18.582031 12.222656 C 18.398438 12.324219 18.214844 12.421875 18.027344 12.523438 C 17.644531 12.785156 17.257812 13.050781 16.871094 13.316406 C 16.679688 13.453125 16.476562 13.574219 16.289062 13.722656 L 15.75 14.175781 C 15.386719 14.484375 15.007812 14.773438 14.671875 15.109375 C 14.007812 15.792969 13.320312 16.460938 12.75 17.230469 C 12.128906 17.960938 11.648438 18.792969 11.128906 19.589844 C 10.890625 20.003906 10.6875 20.4375 10.472656 20.855469 L 10.152344 21.492188 L 9.894531 22.148438 C 9.726562 22.585938 9.554688 23.023438 9.398438 23.460938 C 9.277344 23.910156 9.15625 24.359375 9.039062 24.804688 C 8.980469 25.027344 8.917969 25.246094 8.863281 25.472656 L 8.75 26.164062 C 8.679688 26.621094 8.613281 27.078125 8.542969 27.53125 C 8.523438 27.953125 8.5 28.371094 8.476562 28.785156 C 8.46875 28.992188 8.457031 29.195312 8.449219 29.402344 L 8.441406 29.554688 L 8.441406 29.648438 L 8.445312 29.6875 L 8.449219 29.769531 L 8.46875 30.089844 C 8.535156 30.941406 8.53125 31.777344 8.703125 32.574219 C 8.773438 32.972656 8.839844 33.367188 8.90625 33.753906 C 8.964844 34.140625 9.101562 34.507812 9.203125 34.875 C 9.3125 35.234375 9.417969 35.59375 9.519531 35.941406 C 9.644531 36.285156 9.792969 36.613281 9.925781 36.9375 C 10.058594 37.257812 10.1875 37.574219 10.316406 37.882812 C 10.464844 38.183594 10.625 38.46875 10.78125 38.746094 C 11.089844 39.300781 11.371094 39.828125 11.714844 40.277344 C 12.046875 40.734375 12.320312 41.175781 12.640625 41.550781 C 12.964844 41.910156 13.261719 42.246094 13.53125 42.546875 C 13.664062 42.691406 13.785156 42.839844 13.910156 42.960938 C 14.042969 43.078125 14.164062 43.1875 14.277344 43.292969 C 14.507812 43.496094 14.707031 43.667969 14.863281 43.804688 C 15.179688 44.085938 15.351562 44.234375 15.351562 44.234375 C 15.351562 44.234375 15.21875 44.050781 14.972656 43.707031 C 14.847656 43.535156 14.691406 43.324219 14.507812 43.078125 C 14.324219 42.835938 14.113281 42.550781 13.921875 42.210938 C 13.722656 41.882812 13.5 41.519531 13.253906 41.125 C 13.027344 40.722656 12.816406 40.257812 12.574219 39.785156 C 12.3125 39.320312 12.125 38.777344 11.914062 38.222656 C 11.8125 37.941406 11.691406 37.664062 11.589844 37.367188 C 11.503906 37.070312 11.417969 36.761719 11.328125 36.449219 C 11.242188 36.136719 11.140625 35.820312 11.066406 35.496094 C 11.007812 35.164062 10.949219 34.828125 10.886719 34.484375 C 10.839844 34.140625 10.738281 33.800781 10.714844 33.441406 C 10.6875 33.085938 10.65625 32.722656 10.625 32.359375 C 10.523438 31.628906 10.601562 30.871094 10.601562 30.105469 L 10.605469 29.816406 L 10.609375 29.746094 L 10.609375 29.726562 L 10.625 29.574219 C 10.648438 29.371094 10.671875 29.167969 10.695312 28.960938 C 10.742188 28.550781 10.789062 28.136719 10.832031 27.71875 C 10.917969 27.34375 11 26.964844 11.082031 26.585938 L 11.199219 26.011719 C 11.253906 25.820312 11.320312 25.625 11.378906 25.433594 C 11.5 25.042969 11.625 24.65625 11.746094 24.261719 C 11.902344 23.882812 12.058594 23.503906 12.21875 23.121094 L 12.457031 22.546875 L 12.753906 22 C 12.953125 21.636719 13.136719 21.257812 13.347656 20.898438 C 13.8125 20.207031 14.234375 19.476562 14.789062 18.84375 C 15.28125 18.164062 15.882812 17.574219 16.460938 16.96875 C 16.75 16.667969 17.085938 16.414062 17.390625 16.132812 L 17.859375 15.722656 C 18.015625 15.585938 18.191406 15.476562 18.359375 15.351562 C 18.691406 15.109375 19.027344 14.867188 19.359375 14.625 C 19.710938 14.414062 20.0625 14.207031 20.410156 13.996094 C 20.585938 13.894531 20.757812 13.78125 20.933594 13.6875 L 21.480469 13.429688 C 21.84375 13.261719 22.199219 13.078125 22.5625 12.914062 C 22.933594 12.777344 23.304688 12.644531 23.667969 12.507812 C 23.851562 12.441406 24.035156 12.371094 24.214844 12.304688 C 24.402344 12.253906 24.585938 12.203125 24.773438 12.152344 C 25.140625 12.050781 25.507812 11.953125 25.867188 11.855469 C 26.234375 11.765625 26.605469 11.722656 26.964844 11.65625 C 27.328125 11.605469 27.683594 11.515625 28.039062 11.496094 C 28.398438 11.472656 28.746094 11.453125 29.097656 11.421875 C 29.269531 11.40625 29.441406 11.390625 29.613281 11.378906 L 29.742188 11.367188 L 29.773438 11.363281 C 29.726562 11.363281 29.777344 11.363281 29.777344 11.363281 L 30.109375 11.363281 C 30.460938 11.367188 30.800781 11.367188 31.136719 11.371094 C 32.394531 11.441406 33.605469 11.589844 34.648438 11.808594 C 35.097656 11.902344 35.507812 12.019531 35.90625 12.117188 C 36.109375 12.1875 36.308594 12.253906 36.507812 12.328125 C 36.667969 14.324219 37.160156 19.390625 38.109375 20.921875 C 39.90625 23.824219 46.105469 26.554688 50.039062 28.324219 C 51.027344 27.535156 52.34375 12.03125 40.972656 12.019531 Z M 40.972656 12.019531 " fill-opacity="1" fill-rule="nonzero"/></svg>