<svg xmlns="http://www.w3.org/2000/svg" xmlns:xlink="http://www.w3.org/1999/xlink" width="75" zoomAndPan="magnify" viewBox="0 0 56.879997 56.999997" height="75" preserveAspectRatio="xMidYMid meet" version="1.0"><defs><clipPath id="ff53145bf6"><path d="M 5.007812 2.199219 L 54 2.199219 L 54 54.589844 L 5.007812 54.589844 Z M 5.007812 2.199219 " clip-rule="nonzero"/></clipPath></defs><g clip-path="url(#ff53145bf6)"><path fill="#38b6ff" d="M 13.25 18.285156 L 13.25 22.253906 C 13.25 23.425781 14.207031 24.378906 15.378906 24.378906 L 19.347656 24.378906 C 20.519531 24.378906 21.472656 23.425781 21.472656 22.253906 L 21.472656 19.75 L 23.820312 17.621094 C 24.15625 17.316406 24.179688 16.796875 23.878906 16.464844 C 23.574219 16.128906 23.058594 16.105469 22.722656 16.40625 L 21.371094 17.632812 C 21.097656 16.777344 20.292969 16.15625 19.347656 16.15625 L 15.378906 16.15625 C 14.207031 16.15625 13.25 17.109375 13.25 18.285156 Z M 19.839844 18.285156 L 19.839844 19.027344 L 18.621094 20.128906 L 17.246094 18.753906 C 16.925781 18.4375 16.40625 18.4375 16.085938 18.753906 C 15.769531 19.074219 15.769531 19.59375 16.085938 19.910156 L 18.015625 21.839844 C 18.171875 22 18.382812 22.078125 18.59375 22.078125 C 18.789062 22.078125 18.984375 22.007812 19.140625 21.867188 L 19.839844 21.234375 L 19.839844 22.253906 C 19.839844 22.519531 19.613281 22.742188 19.347656 22.742188 L 15.378906 22.742188 C 15.113281 22.742188 14.886719 22.519531 14.886719 22.253906 L 14.886719 18.285156 C 14.886719 18.019531 15.113281 17.792969 15.378906 17.792969 L 19.347656 17.792969 C 19.613281 17.792969 19.839844 18.019531 19.839844 18.285156 Z M 22.722656 27.539062 L 21.371094 28.761719 C 21.097656 27.90625 20.292969 27.285156 19.347656 27.285156 L 15.378906 27.285156 C 14.207031 27.285156 13.25 28.242188 13.25 29.414062 L 13.25 33.382812 C 13.25 34.554688 14.207031 35.507812 15.378906 35.507812 L 19.347656 35.507812 C 20.519531 35.507812 21.472656 34.554688 21.472656 33.382812 L 21.472656 30.878906 L 23.820312 28.75 C 24.15625 28.445312 24.179688 27.929688 23.878906 27.59375 C 23.574219 27.257812 23.058594 27.234375 22.722656 27.539062 Z M 19.839844 33.382812 C 19.839844 33.648438 19.613281 33.875 19.347656 33.875 L 15.378906 33.875 C 15.113281 33.875 14.886719 33.648438 14.886719 33.382812 L 14.886719 29.414062 C 14.886719 29.148438 15.113281 28.921875 15.378906 28.921875 L 19.347656 28.921875 C 19.613281 28.921875 19.839844 29.148438 19.839844 29.414062 L 19.839844 30.15625 L 18.621094 31.261719 L 17.246094 29.886719 C 16.925781 29.566406 16.40625 29.566406 16.085938 29.886719 C 15.769531 30.203125 15.769531 30.722656 16.085938 31.042969 L 18.015625 32.96875 C 18.171875 33.128906 18.382812 33.207031 18.59375 33.207031 C 18.789062 33.207031 18.984375 33.136719 19.140625 32.996094 L 19.839844 32.363281 Z M 22.722656 38.667969 L 21.371094 39.894531 C 21.097656 39.039062 20.292969 38.417969 19.347656 38.417969 L 15.378906 38.417969 C 14.207031 38.417969 13.25 39.371094 13.25 40.542969 L 13.25 44.511719 C 13.25 45.683594 14.207031 46.640625 15.378906 46.640625 L 19.347656 46.640625 C 20.519531 46.640625 21.472656 45.683594 21.472656 44.511719 L 21.472656 42.007812 L 23.820312 39.878906 C 24.15625 39.574219 24.179688 39.058594 23.878906 38.722656 C 23.574219 38.386719 23.058594 38.363281 22.722656 38.667969 Z M 19.839844 44.511719 C 19.839844 44.777344 19.613281 45.003906 19.347656 45.003906 L 15.378906 45.003906 C 15.113281 45.003906 14.886719 44.777344 14.886719 44.511719 L 14.886719 40.542969 C 14.886719 40.277344 15.113281 40.050781 15.378906 40.050781 L 19.347656 40.050781 C 19.613281 40.050781 19.839844 40.277344 19.839844 40.542969 L 19.839844 41.285156 L 18.621094 42.390625 L 17.246094 41.015625 C 16.925781 40.695312 16.40625 40.695312 16.085938 41.015625 C 15.769531 41.335938 15.769531 41.851562 16.085938 42.171875 L 18.015625 44.097656 C 18.171875 44.257812 18.382812 44.335938 18.59375 44.335938 C 18.789062 44.335938 18.984375 44.265625 19.140625 44.125 L 19.839844 43.492188 Z M 26.640625 6.1875 C 26.640625 6.75 26.179688 7.210938 25.617188 7.210938 C 25.054688 7.210938 24.59375 6.75 24.59375 6.1875 C 24.59375 5.625 25.054688 5.164062 25.617188 5.164062 C 26.179688 5.164062 26.640625 5.625 26.640625 6.1875 Z M 52.335938 11.851562 L 51.574219 11.414062 C 50.128906 10.578125 48.273438 11.074219 47.441406 12.519531 L 46.21875 14.640625 L 46.21875 9.625 C 46.21875 7.917969 44.832031 6.53125 43.125 6.53125 L 35.1875 6.53125 L 35.1875 5.976562 C 35.1875 5.523438 34.824219 5.15625 34.371094 5.15625 L 29.972656 5.15625 C 29.273438 3.386719 27.566406 2.199219 25.617188 2.199219 C 23.667969 2.199219 21.957031 3.386719 21.261719 5.15625 L 16.863281 5.15625 C 16.410156 5.15625 16.042969 5.523438 16.042969 5.976562 L 16.042969 6.53125 L 8.105469 6.53125 C 6.402344 6.53125 5.015625 7.917969 5.015625 9.625 L 5.015625 51.464844 C 5.015625 53.167969 6.402344 54.554688 8.105469 54.554688 L 43.125 54.554688 C 44.832031 54.554688 46.21875 53.167969 46.21875 51.464844 L 46.21875 28.5 L 53.441406 15.984375 C 54.277344 14.539062 53.78125 12.6875 52.335938 11.851562 Z M 48.859375 13.335938 C 49.175781 12.789062 49.8125 12.539062 50.402344 12.6875 L 38.9375 32.542969 L 38.0625 32.035156 Z M 37.761719 33.753906 L 39.894531 34.980469 L 37.761719 36.210938 Z M 43.125 8.167969 C 43.929688 8.167969 44.582031 8.820312 44.582031 9.625 L 44.582031 17.472656 L 43.054688 20.117188 L 43.054688 10.511719 C 43.054688 10.0625 42.6875 9.695312 42.234375 9.695312 L 35.1875 9.695312 L 35.1875 8.167969 Z M 17.679688 6.792969 L 21.859375 6.792969 C 22.238281 6.792969 22.566406 6.535156 22.652344 6.167969 C 22.984375 4.796875 24.203125 3.835938 25.617188 3.835938 C 27.03125 3.835938 28.246094 4.796875 28.578125 6.167969 C 28.667969 6.535156 28.996094 6.792969 29.375 6.792969 L 33.554688 6.792969 L 33.554688 11.070312 L 17.679688 11.070312 Z M 34.371094 12.707031 C 34.824219 12.707031 35.1875 12.339844 35.1875 11.886719 L 35.1875 11.332031 L 41.417969 11.332031 L 41.417969 22.953125 L 36.238281 31.925781 C 36.164062 32.050781 36.128906 32.191406 36.128906 32.335938 L 36.128906 37.628906 C 36.128906 37.921875 36.28125 38.191406 36.535156 38.335938 C 36.664062 38.410156 36.804688 38.445312 36.945312 38.445312 C 37.085938 38.445312 37.226562 38.410156 37.355469 38.335938 L 41.417969 35.992188 L 41.417969 49.757812 L 9.816406 49.757812 L 9.816406 11.332031 L 16.042969 11.332031 L 16.042969 11.886719 C 16.042969 12.339844 16.410156 12.707031 16.863281 12.707031 Z M 44.582031 51.464844 C 44.582031 52.265625 43.929688 52.917969 43.125 52.917969 L 8.105469 52.917969 C 7.304688 52.917969 6.652344 52.265625 6.652344 51.464844 L 6.652344 9.625 C 6.652344 8.820312 7.304688 8.167969 8.105469 8.167969 L 16.042969 8.167969 L 16.042969 9.695312 L 8.996094 9.695312 C 8.542969 9.695312 8.179688 10.0625 8.179688 10.511719 L 8.179688 50.574219 C 8.179688 51.027344 8.542969 51.390625 8.996094 51.390625 L 42.234375 51.390625 C 42.6875 51.390625 43.054688 51.027344 43.054688 50.574219 L 43.054688 33.976562 L 44.582031 31.332031 Z M 52.027344 15.164062 L 41.230469 33.863281 L 40.355469 33.359375 L 51.816406 13.503906 C 52.238281 13.9375 52.34375 14.617188 52.027344 15.164062 Z M 25.296875 22.050781 C 25.296875 21.601562 25.664062 21.234375 26.117188 21.234375 L 30.792969 21.234375 C 31.246094 21.234375 31.613281 21.601562 31.613281 22.050781 C 31.613281 22.503906 31.246094 22.871094 30.792969 22.871094 L 26.117188 22.871094 C 25.664062 22.871094 25.296875 22.503906 25.296875 22.050781 Z M 25.296875 18.484375 C 25.296875 18.035156 25.664062 17.667969 26.117188 17.667969 L 35.472656 17.667969 C 35.925781 17.667969 36.289062 18.035156 36.289062 18.484375 C 36.289062 18.9375 35.925781 19.304688 35.472656 19.304688 L 26.117188 19.304688 C 25.664062 19.304688 25.296875 18.9375 25.296875 18.484375 Z M 25.296875 32.050781 C 25.296875 31.597656 25.664062 31.230469 26.117188 31.230469 L 30.792969 31.230469 C 31.246094 31.230469 31.613281 31.597656 31.613281 32.050781 C 31.613281 32.5 31.246094 32.867188 30.792969 32.867188 L 26.117188 32.867188 C 25.664062 32.867188 25.296875 32.5 25.296875 32.050781 Z M 25.296875 28.484375 C 25.296875 28.03125 25.664062 27.664062 26.117188 27.664062 L 35.472656 27.664062 C 35.925781 27.664062 36.289062 28.03125 36.289062 28.484375 C 36.289062 28.933594 35.925781 29.300781 35.472656 29.300781 L 26.117188 29.300781 C 25.664062 29.300781 25.296875 28.933594 25.296875 28.484375 Z M 25.296875 44.3125 C 25.296875 43.859375 25.664062 43.492188 26.117188 43.492188 L 30.792969 43.492188 C 31.246094 43.492188 31.613281 43.859375 31.613281 44.3125 C 31.613281 44.761719 31.246094 45.128906 30.792969 45.128906 L 26.117188 45.128906 C 25.664062 45.128906 25.296875 44.761719 25.296875 44.3125 Z M 25.296875 40.746094 C 25.296875 40.292969 25.664062 39.925781 26.117188 39.925781 L 35.472656 39.925781 C 35.925781 39.925781 36.289062 40.292969 36.289062 40.746094 C 36.289062 41.195312 35.925781 41.5625 35.472656 41.5625 L 26.117188 41.5625 C 25.664062 41.5625 25.296875 41.195312 25.296875 40.746094 Z M 25.296875 40.746094 " fill-opacity="1" fill-rule="nonzero"/></g></svg>