<svg xmlns="http://www.w3.org/2000/svg" xmlns:xlink="http://www.w3.org/1999/xlink" width="75" zoomAndPan="magnify" viewBox="0 0 56.879997 56.999997" height="75" preserveAspectRatio="xMidYMid meet" version="1.0"><defs><clipPath id="b697977191"><path d="M 6 45 L 21 45 L 21 53.652344 L 6 53.652344 Z M 6 45 " clip-rule="nonzero"/></clipPath><clipPath id="9535a50aa7"><path d="M 35 10 L 53.671875 10 L 53.671875 35 L 35 35 Z M 35 10 " clip-rule="nonzero"/></clipPath><clipPath id="e8bc9fc431"><path d="M 2.777344 21 L 25 21 L 25 50 L 2.777344 50 Z M 2.777344 21 " clip-rule="nonzero"/></clipPath></defs><path fill="#38b6ff" d="M 13.621094 50.21875 C 13.460938 50.21875 13.320312 50.167969 13.199219 50.066406 C 13.074219 49.96875 13 49.839844 12.96875 49.683594 C 12.9375 49.527344 12.957031 49.378906 13.03125 49.238281 C 13.105469 49.097656 13.214844 48.996094 13.363281 48.933594 L 16.246094 47.730469 C 16.410156 47.671875 16.574219 47.679688 16.738281 47.75 C 16.898438 47.824219 17.011719 47.941406 17.082031 48.101562 C 17.148438 48.265625 17.152344 48.429688 17.089844 48.597656 C 17.03125 48.761719 16.921875 48.882812 16.761719 48.960938 L 13.878906 50.167969 C 13.796875 50.203125 13.710938 50.21875 13.621094 50.21875 Z M 19.386719 47.8125 C 19.089844 47.8125 18.882812 47.675781 18.769531 47.398438 C 18.691406 47.226562 18.691406 47.054688 18.761719 46.878906 C 18.828125 46.703125 18.953125 46.578125 19.128906 46.507812 L 22.011719 45.300781 C 22.179688 45.230469 22.351562 45.230469 22.523438 45.300781 C 22.695312 45.371094 22.816406 45.492188 22.886719 45.660156 C 22.957031 45.832031 22.960938 46.003906 22.890625 46.175781 C 22.820312 46.347656 22.699219 46.46875 22.527344 46.539062 L 19.644531 47.742188 C 19.5625 47.78125 19.476562 47.804688 19.386719 47.8125 Z M 25.140625 45.421875 C 24.980469 45.421875 24.839844 45.371094 24.714844 45.269531 C 24.59375 45.167969 24.515625 45.042969 24.484375 44.886719 C 24.453125 44.730469 24.476562 44.582031 24.550781 44.441406 C 24.625 44.300781 24.734375 44.199219 24.878906 44.136719 L 27.761719 42.933594 C 27.933594 42.855469 28.109375 42.855469 28.28125 42.921875 C 28.457031 42.992188 28.578125 43.113281 28.652344 43.289062 C 28.722656 43.460938 28.722656 43.636719 28.648438 43.808594 C 28.574219 43.980469 28.449219 44.101562 28.277344 44.167969 L 25.398438 45.375 C 25.316406 45.40625 25.226562 45.425781 25.140625 45.421875 Z M 30.898438 43.011719 C 30.742188 43.011719 30.601562 42.960938 30.476562 42.859375 C 30.355469 42.757812 30.277344 42.632812 30.246094 42.476562 C 30.214844 42.320312 30.238281 42.171875 30.3125 42.03125 C 30.386719 41.890625 30.496094 41.789062 30.640625 41.726562 L 33.539062 40.515625 C 33.710938 40.417969 33.890625 40.398438 34.082031 40.464844 C 34.269531 40.527344 34.402344 40.648438 34.480469 40.832031 C 34.558594 41.015625 34.558594 41.195312 34.472656 41.378906 C 34.390625 41.558594 34.253906 41.679688 34.0625 41.738281 L 31.179688 42.941406 C 31.09375 42.976562 31.007812 42.992188 30.914062 42.992188 Z M 36.667969 40.601562 C 36.367188 40.605469 36.164062 40.46875 36.050781 40.191406 C 35.972656 40.019531 35.96875 39.847656 36.039062 39.671875 C 36.109375 39.496094 36.230469 39.371094 36.40625 39.300781 L 39.289062 38.09375 C 39.460938 38.023438 39.632812 38.023438 39.804688 38.09375 C 39.972656 38.164062 40.09375 38.285156 40.167969 38.453125 C 40.238281 38.625 40.238281 38.796875 40.167969 38.96875 C 40.097656 39.136719 39.980469 39.261719 39.808594 39.332031 L 36.9375 40.515625 C 36.855469 40.554688 36.769531 40.578125 36.679688 40.582031 Z M 42.433594 38.191406 C 42.273438 38.191406 42.132812 38.140625 42.011719 38.039062 C 41.886719 37.941406 41.808594 37.8125 41.777344 37.65625 C 41.746094 37.5 41.769531 37.351562 41.84375 37.210938 C 41.917969 37.070312 42.027344 36.96875 42.171875 36.90625 L 43.066406 36.539062 L 42.988281 36.449219 C 42.859375 36.316406 42.792969 36.160156 42.792969 35.976562 C 42.792969 35.789062 42.859375 35.632812 42.988281 35.503906 C 43.117188 35.367188 43.273438 35.296875 43.457031 35.292969 C 43.640625 35.285156 43.800781 35.347656 43.9375 35.472656 L 44.757812 36.246094 C 44.933594 36.414062 45 36.617188 44.960938 36.855469 C 44.917969 37.09375 44.785156 37.257812 44.5625 37.351562 L 42.71875 38.121094 C 42.628906 38.160156 42.539062 38.175781 42.445312 38.171875 Z M 41.164062 34.515625 C 40.992188 34.515625 40.84375 34.453125 40.71875 34.335938 L 38.4375 32.199219 C 38.332031 32.070312 38.285156 31.925781 38.289062 31.757812 C 38.292969 31.59375 38.351562 31.449219 38.464844 31.328125 C 38.574219 31.207031 38.714844 31.132812 38.878906 31.113281 C 39.042969 31.09375 39.191406 31.128906 39.332031 31.222656 L 41.652344 33.335938 C 41.773438 33.46875 41.835938 33.621094 41.835938 33.800781 C 41.835938 33.980469 41.773438 34.136719 41.652344 34.265625 C 41.523438 34.40625 41.367188 34.484375 41.179688 34.492188 Z M 36.621094 30.222656 C 36.449219 30.21875 36.300781 30.160156 36.175781 30.039062 L 33.894531 27.90625 C 33.761719 27.78125 33.691406 27.625 33.683594 27.441406 C 33.679688 27.253906 33.738281 27.097656 33.863281 26.960938 C 33.988281 26.824219 34.144531 26.753906 34.328125 26.746094 C 34.515625 26.742188 34.675781 26.800781 34.808594 26.929688 L 37.089844 29.0625 C 37.226562 29.1875 37.296875 29.34375 37.304688 29.527344 C 37.308594 29.714844 37.25 29.875 37.121094 30.007812 C 36.988281 30.15625 36.820312 30.226562 36.621094 30.222656 Z M 32.058594 25.953125 C 31.886719 25.949219 31.738281 25.890625 31.613281 25.769531 L 29.332031 23.632812 C 29.253906 23.574219 29.191406 23.503906 29.140625 23.421875 C 29.09375 23.339844 29.0625 23.25 29.054688 23.152344 C 29.042969 23.054688 29.054688 22.960938 29.085938 22.871094 C 29.117188 22.777344 29.164062 22.699219 29.230469 22.625 C 29.296875 22.554688 29.375 22.503906 29.464844 22.464844 C 29.554688 22.429688 29.648438 22.410156 29.742188 22.414062 C 29.839844 22.417969 29.933594 22.441406 30.019531 22.484375 C 30.105469 22.527344 30.179688 22.585938 30.238281 22.664062 L 32.519531 24.796875 C 32.742188 25 32.796875 25.246094 32.691406 25.527344 C 32.582031 25.808594 32.375 25.953125 32.074219 25.957031 Z M 27.5 21.675781 C 27.328125 21.675781 27.179688 21.613281 27.054688 21.496094 L 24.765625 19.359375 C 24.625 19.234375 24.554688 19.078125 24.546875 18.890625 C 24.539062 18.707031 24.597656 18.542969 24.726562 18.410156 C 24.855469 18.273438 25.011719 18.203125 25.195312 18.195312 C 25.382812 18.191406 25.542969 18.253906 25.679688 18.382812 L 27.960938 20.519531 C 28.175781 20.726562 28.230469 20.96875 28.125 21.25 C 28.015625 21.527344 27.8125 21.671875 27.511719 21.675781 Z M 27.5 21.675781 " fill-opacity="1" fill-rule="nonzero"/><path fill="#38b6ff" d="M 28.261719 17.753906 C 28.261719 19.195312 26.371094 20.359375 24.039062 20.359375 C 21.710938 20.359375 19.820312 19.203125 19.820312 17.753906 C 19.820312 16.304688 21.707031 15.152344 24.039062 15.152344 C 26.375 15.152344 28.261719 16.324219 28.261719 17.753906 Z M 28.261719 17.753906 " fill-opacity="1" fill-rule="nonzero"/><path fill="#38b6ff" d="M 18.515625 8.710938 C 18.515625 12.9375 24.039062 17.753906 24.039062 17.753906 C 24.039062 17.753906 29.5625 12.9375 29.5625 8.710938 C 29.570312 8.34375 29.546875 7.976562 29.484375 7.613281 C 29.417969 7.25 29.320312 6.894531 29.1875 6.550781 C 29.054688 6.207031 28.886719 5.878906 28.6875 5.566406 C 28.488281 5.257812 28.257812 4.96875 28 4.703125 C 27.742188 4.441406 27.460938 4.203125 27.15625 3.996094 C 26.851562 3.785156 26.53125 3.609375 26.1875 3.464844 C 25.847656 3.320312 25.496094 3.214844 25.136719 3.140625 C 24.773438 3.066406 24.40625 3.03125 24.039062 3.03125 C 23.667969 3.03125 23.304688 3.066406 22.941406 3.140625 C 22.578125 3.214844 22.226562 3.320312 21.886719 3.464844 C 21.546875 3.609375 21.226562 3.785156 20.921875 3.996094 C 20.617188 4.203125 20.335938 4.441406 20.078125 4.703125 C 19.820312 4.96875 19.589844 5.257812 19.390625 5.566406 C 19.191406 5.878906 19.023438 6.207031 18.890625 6.550781 C 18.757812 6.894531 18.65625 7.25 18.59375 7.613281 C 18.53125 7.976562 18.503906 8.34375 18.515625 8.710938 Z M 18.515625 8.710938 " fill-opacity="1" fill-rule="nonzero"/><path fill="#38b6ff" d="M 50.019531 36.433594 C 50.019531 36.667969 49.980469 36.898438 49.910156 37.125 C 49.835938 37.351562 49.726562 37.574219 49.582031 37.789062 C 49.4375 38.003906 49.261719 38.207031 49.050781 38.402344 C 48.84375 38.59375 48.605469 38.773438 48.339844 38.9375 C 48.074219 39.101562 47.78125 39.25 47.46875 39.378906 C 47.15625 39.507812 46.828125 39.617188 46.480469 39.703125 C 46.128906 39.792969 45.773438 39.859375 45.402344 39.90625 C 45.035156 39.953125 44.660156 39.972656 44.285156 39.972656 C 43.90625 39.972656 43.535156 39.953125 43.164062 39.90625 C 42.796875 39.859375 42.4375 39.792969 42.089844 39.703125 C 41.742188 39.617188 41.410156 39.507812 41.097656 39.378906 C 40.785156 39.25 40.496094 39.101562 40.230469 38.9375 C 39.960938 38.773438 39.726562 38.59375 39.515625 38.402344 C 39.304688 38.207031 39.128906 38.003906 38.984375 37.789062 C 38.839844 37.574219 38.734375 37.351562 38.660156 37.125 C 38.585938 36.898438 38.550781 36.667969 38.550781 36.433594 C 38.550781 36.203125 38.585938 35.972656 38.660156 35.746094 C 38.734375 35.515625 38.839844 35.296875 38.984375 35.082031 C 39.128906 34.867188 39.304688 34.660156 39.515625 34.46875 C 39.726562 34.277344 39.960938 34.097656 40.230469 33.933594 C 40.496094 33.769531 40.785156 33.621094 41.097656 33.492188 C 41.410156 33.363281 41.742188 33.253906 42.089844 33.164062 C 42.4375 33.078125 42.796875 33.007812 43.164062 32.964844 C 43.535156 32.917969 43.90625 32.894531 44.285156 32.894531 C 44.660156 32.894531 45.035156 32.917969 45.402344 32.964844 C 45.773438 33.007812 46.128906 33.078125 46.480469 33.164062 C 46.828125 33.253906 47.15625 33.363281 47.46875 33.492188 C 47.78125 33.621094 48.074219 33.769531 48.339844 33.933594 C 48.605469 34.097656 48.84375 34.277344 49.050781 34.46875 C 49.261719 34.660156 49.4375 34.867188 49.582031 35.082031 C 49.726562 35.296875 49.835938 35.515625 49.910156 35.746094 C 49.980469 35.972656 50.019531 36.203125 50.019531 36.433594 Z M 50.019531 36.433594 " fill-opacity="1" fill-rule="nonzero"/><g clip-path="url(#b697977191)"><path fill="#38b6ff" d="M 20.308594 49.640625 C 20.308594 49.910156 20.265625 50.179688 20.179688 50.445312 C 20.097656 50.710938 19.96875 50.96875 19.800781 51.21875 C 19.632812 51.46875 19.425781 51.707031 19.183594 51.933594 C 18.9375 52.160156 18.660156 52.367188 18.351562 52.558594 C 18.039062 52.75 17.703125 52.921875 17.335938 53.074219 C 16.972656 53.222656 16.585938 53.351562 16.179688 53.453125 C 15.773438 53.558594 15.355469 53.636719 14.925781 53.6875 C 14.496094 53.742188 14.058594 53.769531 13.621094 53.769531 C 13.179688 53.769531 12.746094 53.742188 12.316406 53.6875 C 11.882812 53.636719 11.464844 53.558594 11.058594 53.453125 C 10.65625 53.351562 10.269531 53.222656 9.902344 53.074219 C 9.539062 52.921875 9.199219 52.75 8.890625 52.558594 C 8.578125 52.367188 8.300781 52.160156 8.058594 51.933594 C 7.8125 51.707031 7.609375 51.46875 7.441406 51.21875 C 7.273438 50.96875 7.144531 50.710938 7.058594 50.445312 C 6.972656 50.179688 6.929688 49.910156 6.929688 49.640625 C 6.929688 49.371094 6.972656 49.101562 7.058594 48.835938 C 7.144531 48.570312 7.273438 48.3125 7.441406 48.0625 C 7.609375 47.808594 7.8125 47.570312 8.058594 47.347656 C 8.300781 47.121094 8.578125 46.914062 8.890625 46.722656 C 9.199219 46.53125 9.539062 46.359375 9.902344 46.207031 C 10.269531 46.058594 10.65625 45.929688 11.058594 45.828125 C 11.464844 45.722656 11.882812 45.644531 12.316406 45.589844 C 12.746094 45.539062 13.179688 45.511719 13.621094 45.511719 C 14.058594 45.511719 14.496094 45.539062 14.925781 45.589844 C 15.355469 45.644531 15.773438 45.722656 16.179688 45.828125 C 16.585938 45.929688 16.972656 46.058594 17.335938 46.207031 C 17.703125 46.359375 18.039062 46.53125 18.351562 46.722656 C 18.660156 46.914062 18.9375 47.121094 19.183594 47.347656 C 19.425781 47.570312 19.632812 47.808594 19.800781 48.0625 C 19.96875 48.3125 20.097656 48.570312 20.179688 48.835938 C 20.265625 49.101562 20.308594 49.371094 20.308594 49.640625 Z M 20.308594 49.640625 " fill-opacity="1" fill-rule="nonzero"/></g><g clip-path="url(#9535a50aa7)"><path fill="#38b6ff" d="M 44.285156 10.496094 C 43.695312 10.496094 43.113281 10.554688 42.539062 10.667969 C 41.960938 10.785156 41.402344 10.953125 40.859375 11.179688 C 40.316406 11.402344 39.800781 11.679688 39.3125 12.003906 C 38.824219 12.332031 38.371094 12.703125 37.957031 13.117188 C 37.542969 13.535156 37.171875 13.984375 36.84375 14.472656 C 36.519531 14.960938 36.242188 15.476562 36.015625 16.019531 C 35.792969 16.5625 35.621094 17.125 35.507812 17.699219 C 35.394531 18.277344 35.335938 18.859375 35.335938 19.445312 C 35.335938 26.296875 44.285156 34.117188 44.285156 34.117188 C 44.285156 34.117188 53.210938 26.296875 53.210938 19.445312 C 53.210938 18.859375 53.152344 18.277344 53.039062 17.703125 C 52.925781 17.125 52.753906 16.566406 52.53125 16.027344 C 52.304688 15.484375 52.03125 14.96875 51.707031 14.480469 C 51.378906 13.992188 51.011719 13.542969 50.597656 13.125 C 50.183594 12.710938 49.730469 12.339844 49.246094 12.011719 C 48.757812 11.6875 48.242188 11.410156 47.703125 11.183594 C 47.160156 10.960938 46.601562 10.789062 46.027344 10.671875 C 45.453125 10.558594 44.871094 10.5 44.285156 10.496094 Z M 44.285156 23.4375 C 44.007812 23.441406 43.730469 23.414062 43.460938 23.359375 C 43.1875 23.304688 42.925781 23.226562 42.667969 23.121094 C 42.410156 23.015625 42.167969 22.882812 41.9375 22.730469 C 41.707031 22.578125 41.492188 22.402344 41.296875 22.207031 C 41.101562 22.007812 40.925781 21.796875 40.769531 21.566406 C 40.617188 21.335938 40.488281 21.09375 40.378906 20.835938 C 40.273438 20.582031 40.195312 20.316406 40.140625 20.042969 C 40.085938 19.773438 40.058594 19.496094 40.058594 19.21875 C 40.058594 18.941406 40.085938 18.667969 40.136719 18.398438 C 40.191406 18.125 40.273438 17.859375 40.378906 17.605469 C 40.484375 17.347656 40.613281 17.105469 40.769531 16.875 C 40.921875 16.644531 41.097656 16.429688 41.292969 16.234375 C 41.488281 16.039062 41.703125 15.863281 41.933594 15.707031 C 42.164062 15.554688 42.40625 15.425781 42.664062 15.316406 C 42.917969 15.210938 43.183594 15.132812 43.453125 15.078125 C 43.726562 15.023438 44 14.996094 44.277344 14.996094 C 44.554688 14.996094 44.828125 15.023438 45.101562 15.078125 C 45.375 15.128906 45.636719 15.210938 45.894531 15.316406 C 46.148438 15.421875 46.394531 15.554688 46.625 15.707031 C 46.855469 15.859375 47.066406 16.035156 47.265625 16.230469 C 47.460938 16.429688 47.636719 16.640625 47.789062 16.871094 C 47.945312 17.101562 48.074219 17.34375 48.179688 17.601562 C 48.285156 17.859375 48.367188 18.121094 48.421875 18.394531 C 48.472656 18.664062 48.5 18.941406 48.5 19.21875 C 48.5 19.492188 48.472656 19.765625 48.417969 20.039062 C 48.363281 20.308594 48.28125 20.570312 48.175781 20.824219 C 48.066406 21.078125 47.9375 21.320312 47.78125 21.550781 C 47.628906 21.78125 47.453125 21.992188 47.257812 22.1875 C 47.0625 22.382812 46.851562 22.554688 46.621094 22.707031 C 46.390625 22.863281 46.148438 22.992188 45.894531 23.097656 C 45.636719 23.203125 45.375 23.28125 45.105469 23.335938 C 44.832031 23.390625 44.558594 23.417969 44.285156 23.417969 Z M 44.285156 23.4375 " fill-opacity="1" fill-rule="nonzero"/></g><g clip-path="url(#e8bc9fc431)"><path fill="#38b6ff" d="M 13.621094 21.261719 C 12.917969 21.261719 12.21875 21.332031 11.53125 21.46875 C 10.839844 21.605469 10.171875 21.808594 9.519531 22.078125 C 8.871094 22.347656 8.253906 22.675781 7.667969 23.066406 C 7.085938 23.457031 6.542969 23.902344 6.046875 24.398438 C 5.550781 24.894531 5.105469 25.4375 4.714844 26.023438 C 4.324219 26.605469 3.992188 27.222656 3.726562 27.875 C 3.457031 28.523438 3.253906 29.191406 3.117188 29.882812 C 2.976562 30.574219 2.910156 31.269531 2.910156 31.972656 C 2.910156 40.179688 13.621094 49.546875 13.621094 49.546875 C 13.621094 49.546875 24.332031 40.175781 24.332031 31.972656 C 24.332031 31.269531 24.261719 30.574219 24.125 29.882812 C 23.988281 29.191406 23.785156 28.523438 23.515625 27.875 C 23.246094 27.222656 22.917969 26.605469 22.527344 26.023438 C 22.136719 25.4375 21.691406 24.894531 21.195312 24.398438 C 20.695312 23.902344 20.15625 23.457031 19.570312 23.066406 C 18.984375 22.675781 18.367188 22.347656 17.71875 22.078125 C 17.070312 21.808594 16.398438 21.605469 15.710938 21.46875 C 15.019531 21.332031 14.324219 21.261719 13.621094 21.261719 Z M 13.621094 36.734375 C 13.289062 36.734375 12.960938 36.703125 12.632812 36.636719 C 12.308594 36.570312 11.992188 36.476562 11.683594 36.347656 C 11.378906 36.222656 11.085938 36.066406 10.8125 35.882812 C 10.535156 35.699219 10.28125 35.488281 10.042969 35.253906 C 9.808594 35.019531 9.601562 34.761719 9.417969 34.488281 C 9.230469 34.210938 9.074219 33.917969 8.949219 33.613281 C 8.820312 33.304688 8.726562 32.988281 8.660156 32.664062 C 8.597656 32.339844 8.5625 32.007812 8.5625 31.675781 C 8.5625 31.34375 8.597656 31.015625 8.660156 30.691406 C 8.726562 30.367188 8.820312 30.050781 8.949219 29.742188 C 9.074219 29.4375 9.230469 29.144531 9.417969 28.867188 C 9.601562 28.59375 9.808594 28.335938 10.042969 28.101562 C 10.28125 27.867188 10.535156 27.65625 10.8125 27.472656 C 11.085938 27.289062 11.378906 27.132812 11.683594 27.007812 C 11.992188 26.878906 12.308594 26.785156 12.632812 26.71875 C 12.960938 26.652344 13.289062 26.621094 13.621094 26.621094 C 13.953125 26.621094 14.28125 26.652344 14.605469 26.71875 C 14.933594 26.785156 15.25 26.878906 15.554688 27.007812 C 15.863281 27.132812 16.152344 27.289062 16.429688 27.472656 C 16.707031 27.65625 16.960938 27.867188 17.195312 28.101562 C 17.429688 28.335938 17.640625 28.59375 17.824219 28.867188 C 18.007812 29.144531 18.164062 29.4375 18.292969 29.742188 C 18.417969 30.050781 18.515625 30.367188 18.578125 30.691406 C 18.644531 31.015625 18.675781 31.34375 18.675781 31.675781 C 18.675781 32.007812 18.644531 32.339844 18.582031 32.664062 C 18.515625 32.988281 18.417969 33.304688 18.292969 33.613281 C 18.164062 33.921875 18.011719 34.210938 17.824219 34.488281 C 17.640625 34.765625 17.433594 35.019531 17.195312 35.253906 C 16.960938 35.488281 16.707031 35.699219 16.429688 35.882812 C 16.152344 36.066406 15.863281 36.222656 15.554688 36.351562 C 15.25 36.476562 14.933594 36.574219 14.605469 36.636719 C 14.28125 36.703125 13.953125 36.734375 13.621094 36.734375 Z M 13.621094 36.734375 " fill-opacity="1" fill-rule="nonzero"/></g></svg>